# xmcd
#
# Track frame offsets:
# 150
# 13759
# 30989
# 44580
# 64860
# 80334
# 93696
# 105844
# 120011
# 134292
# 148565
# 165379
# 179658
# 199870
# 213348
# 227372
#
# Disc length: 3189 seconds
#
#
# Revision: 0
# Processed by: cddbd v1.5.1PL2 Copyright (c) Steve Scherf et al.
# Submitted via: FreeRIP 2.943 
#
DISCID=cb0c7310
DTITLE=Daniel - Meu Reino Encantado 2
DYEAR=2003
DGENRE=Country
TTITLE0=Encantos da Natureza
TTITLE1=Mundo Velho
TTITLE2=Paixão Dupla
TTITLE3=Pout Pourri de Pagodes
TTITLE4=Rolinha Cabocla
TTITLE5=Versos ao pé do Homem
TTITLE6=Moradia
TTITLE7=Cobra Venenosa
TTITLE8=Prá tudo se dá um jeito
TTITLE9=Cabelo Loiro
TTITLE10=Consagração
TTITLE11=Viúva Rica
TTITLE12=Travessia do Araguaia
TTITLE13=Tudo é beleza
TTITLE14=Minha Vida
TTITLE15=Minas Gerais
EXTD=
EXTT0=
EXTT1=
EXTT2=
EXTT3=
EXTT4=
EXTT5=
EXTT6=
EXTT7=
EXTT8=
EXTT9=
EXTT10=
EXTT11=
EXTT12=
EXTT13=
EXTT14=
EXTT15=
PLAYORDER=
